<?xml version="1.0" encoding="iso-8859-1"?>
<!-- Generator: Adobe Illustrator 18.0.0, SVG Export Plug-In . SVG Version: 6.00 Build 0)  -->
<!DOCTYPE svg PUBLIC "-//W3C//DTD SVG 1.1//EN" "http://www.w3.org/Graphics/SVG/1.1/DTD/svg11.dtd">
<svg version="1.1" id="Capa_1" xmlns="http://www.w3.org/2000/svg" xmlns:xlink="http://www.w3.org/1999/xlink" x="0px" y="0px"
	 viewBox="0 0 52.794 52.794" style="enable-background:new 0 0 52.794 52.794;" xml:space="preserve">
<g>
	<path d="M51.75,1.241c-1.508-1.162-3.468-1.524-5.522-1.018c-1.733,0.427-3.358,1.435-4.648,2.87
		c-0.186-0.149-0.371-0.298-0.57-0.44c-1.896-1.353-3.904-2.038-5.972-2.038c-2.613,0-5.303,1.132-7.702,3.215L12.754,14.245
		c-3.399,2.428-6.109,5.261-8.056,8.42c-5.385,8.743-6.215,20.892,2.617,27.196c2.726,1.946,5.794,2.932,9.119,2.932
		c6.146,0,12.669-3.476,17.451-9.297c2.354-2.867,4.153-6.351,5.345-10.355l5.079-17.088c1.826-4.538,1.362-8.553-1.263-11.566
		c1.028-1.158,2.299-1.988,3.659-2.323c1.452-0.356,2.809-0.123,3.824,0.66c0.437,0.337,1.064,0.255,1.402-0.182
		C52.268,2.206,52.187,1.578,51.75,1.241z M40.368,13.801c-0.691,1.853-1.225,3.563-1.63,5.229l-2.877,11.817
		c-1.159,3.395-2.734,6.312-4.707,8.757c-4.295,5.324-9.864,8.502-14.899,8.502c-2.317,0-4.427-0.667-6.271-1.983
		c-6.629-4.732-5.378-14.719-0.716-22.14c1.671-2.66,3.917-5.098,6.677-7.245l7.967-5.094c2.126-1.358,4.615-3.001,6.959-4.896
		c1.236-0.999,2.74-2.02,4.525-2.02c1.103,0,2.179,0.385,3.29,1.178C41.898,8.201,41.393,11.056,40.368,13.801z"/>
	<path d="M27.292,21.887c-0.747-0.533-1.669-0.803-2.742-0.803c-3.979,0-9.793,3.981-12.335,7.541
		c-3.147,4.412-2.657,10.178,1.094,12.855c1.249,0.891,2.755,1.362,4.354,1.362c3.094,0,6.143-1.685,8.156-4.507
		c1.522-2.132,2.828-5.487,3.329-8.549C29.768,25.989,29.109,23.184,27.292,21.887z M15.097,36.524
		c-0.817,0.136-1.59-0.415-1.727-1.232c-0.136-0.817,0.415-1.59,1.232-1.727c0.817-0.136,1.59,0.415,1.727,1.232
		C16.466,35.614,15.914,36.388,15.097,36.524z M17.397,32.084c-0.136-0.817,0.415-1.59,1.232-1.727
		c0.817-0.136,1.59,0.415,1.727,1.232c0.137,0.817-0.415,1.59-1.232,1.727C18.307,33.453,17.534,32.901,17.397,32.084z
		 M19.537,38.824c-0.817,0.137-1.59-0.415-1.727-1.232c-0.137-0.817,0.415-1.59,1.232-1.727c0.817-0.136,1.59,0.415,1.727,1.232
		C20.906,37.914,20.354,38.687,19.537,38.824z"/>
</g>
<g>
</g>
<g>
</g>
<g>
</g>
<g>
</g>
<g>
</g>
<g>
</g>
<g>
</g>
<g>
</g>
<g>
</g>
<g>
</g>
<g>
</g>
<g>
</g>
<g>
</g>
<g>
</g>
<g>
</g>
</svg>
