<?xml version="1.0" encoding="iso-8859-1"?>
<!-- Generator: Adobe Illustrator 18.0.0, SVG Export Plug-In . SVG Version: 6.00 Build 0)  -->
<!DOCTYPE svg PUBLIC "-//W3C//DTD SVG 1.1//EN" "http://www.w3.org/Graphics/SVG/1.1/DTD/svg11.dtd">
<svg version="1.1" id="Capa_1" xmlns="http://www.w3.org/2000/svg" xmlns:xlink="http://www.w3.org/1999/xlink" x="0px" y="0px"
	 viewBox="0 0 445.822 445.822" style="enable-background:new 0 0 445.822 445.822;" xml:space="preserve">
<g id="XMLID_18_">
	<path id="XMLID_71_" d="M423.655,146.208c-16.213-12.432-40.302-20.336-68.47-30.969c-18.909,29.224-59.251,39.051-92.711,20.521
		c-33.253-18.416-46.64-57.711-31.794-89.473c-23.993-18.261-43.445-34.462-62.579-41.608c-20.526-7.665-39.037-4.389-56.592,10.017
		C94.627,28.551,87.067,50.865,89.648,79.226c2.556,28.085,14.936,59.912,34.858,89.619c18.459,27.523,41.383,50.429,66.842,66.93
		c55.633,0.558,98.233-12.957,135.43-12.957c28.95,0,54.193,8.883,72.098,30.993c23.501-11.093,43.025-28.752,46.314-54.319v0.001
		C448.088,176.968,441.044,159.539,423.655,146.208z"/>
	<path id="XMLID_223_" d="M277.008,109.516c17.64,9.769,37.905,6.297,49.292-5.847c-11.617-5.011-23.711-10.757-36.186-17.662
		c-0.018-0.01-0.035-0.023-0.054-0.033c-0.018-0.01-0.038-0.018-0.057-0.028c-12.481-6.914-23.775-14.121-34.191-21.313
		C251.56,80.725,259.366,99.746,277.008,109.516z"/>
	<path id="XMLID_333_" d="M234.987,263.723c-12.59,1.244-25.954,2.077-40.213,2.08c-0.023,0-0.045-0.003-0.068-0.003
		c-0.023,0-0.045,0.003-0.068,0.003c-14.259-0.003-27.623-0.835-40.213-2.08c4.206,16.583,20.663,28.995,40.281,28.995
		S230.781,280.305,234.987,263.723z"/>
	<path id="XMLID_341_" d="M326.777,252.818c-17.349,0-37.44,3.609-60.912,7.032c-2.444,35.052-33.416,62.868-71.159,62.868
		s-68.715-27.816-71.159-62.868c-23.507-3.428-43.569-7.032-60.908-7.032c-28.532,0-48.153,10.685-58.65,37.132
		c-8.056,20.299-3.858,43.482,12.14,67.042c15.842,23.331,42.091,45.176,73.912,61.511c33.975,17.441,70.168,26.66,104.666,26.66
		c34.498,0,70.691-9.219,104.666-26.66c31.821-16.335,58.07-38.18,73.912-61.511c15.998-23.56,20.195-46.743,12.14-67.042
		C374.94,263.536,355.348,252.818,326.777,252.818z"/>
</g>
<g>
</g>
<g>
</g>
<g>
</g>
<g>
</g>
<g>
</g>
<g>
</g>
<g>
</g>
<g>
</g>
<g>
</g>
<g>
</g>
<g>
</g>
<g>
</g>
<g>
</g>
<g>
</g>
<g>
</g>
</svg>
