<?xml version="1.0" encoding="iso-8859-1"?>
<!-- Generator: Adobe Illustrator 16.0.0, SVG Export Plug-In . SVG Version: 6.00 Build 0)  -->
<!DOCTYPE svg PUBLIC "-//W3C//DTD SVG 1.1//EN" "http://www.w3.org/Graphics/SVG/1.1/DTD/svg11.dtd">
<svg version="1.1" id="Capa_1" xmlns="http://www.w3.org/2000/svg" xmlns:xlink="http://www.w3.org/1999/xlink" x="0px" y="0px"
	 width="201.983px" height="201.983px" viewBox="0 0 201.983 201.983" style="enable-background:new 0 0 201.983 201.983;"
	 xml:space="preserve">
<g>
	<path d="M171.702,33.63c-2.382-5.568-7.554-9.794-13.943-11.071c1.549-2.039,2.471-4.285,2.471-6.682
		C160.229,7.105,148.691,0,134.459,0c-9.269,0-17.319,3.038-21.87,7.554c-2.519-1.005-5.509-1.611-8.73-1.611
		c-8.904,0-16.113,4.445-16.113,9.933c0,2.432-3.99,4.338-1.634,6.064c-7.861,0.399-11.222,5.37-12.354,12.046
		c-5.677,2.565-9.649,8.236-9.649,14.851v18.294c-24.795,1.886-44.39,22.6-44.39,47.851c0,25.263,19.594,45.979,44.39,47.859v22.827
		c0,8.996,7.321,16.314,16.308,16.314h85.523c8.996,0,16.325-7.318,16.325-16.314V48.832
		C182.271,41.878,177.855,35.964,171.702,33.63z M64.118,150.761C46.007,148.916,31.833,133.583,31.833,115
		c0-18.574,14.174-33.919,32.285-35.745V150.761z M170.166,185.692c0,2.317-1.886,4.203-4.209,4.203H80.434
		c-2.317,0-4.2-1.886-4.2-4.203v-10.929h93.938v10.929H170.166z M170.166,162.659H76.229V72.626h93.938V162.659z M170.166,60.521
		H76.229V48.838c0-2.323,1.889-4.206,4.2-4.206h85.523c2.329,0,4.208,1.889,4.208,4.206v11.683H170.166z M102.738,156.606H90.633
		V82.461h12.105V156.606z M129.233,156.606h-12.105V82.461h12.105V156.606z M155.749,156.606h-12.105V82.461h12.105V156.606z"/>
</g>
<g>
</g>
<g>
</g>
<g>
</g>
<g>
</g>
<g>
</g>
<g>
</g>
<g>
</g>
<g>
</g>
<g>
</g>
<g>
</g>
<g>
</g>
<g>
</g>
<g>
</g>
<g>
</g>
<g>
</g>
</svg>
