<?xml version="1.0" encoding="iso-8859-1"?>
<!-- Generator: Adobe Illustrator 19.0.0, SVG Export Plug-In . SVG Version: 6.00 Build 0)  -->
<svg version="1.1" id="Capa_1" xmlns="http://www.w3.org/2000/svg" xmlns:xlink="http://www.w3.org/1999/xlink" x="0px" y="0px"
	 viewBox="0 0 490.14 490.14" style="enable-background:new 0 0 490.14 490.14;" xml:space="preserve">
<g>
	<g>
		<g>
			<path d="M421.68,13.89c-4.7,2.3-15.6,8.4-30.7-1.2c-12.8-5.8-28.4-5.4-40.8,1.6c-11.7,6.6-21.4,18.3-34.6,17.9
				c-6.2-0.4-12.1-3.5-17.9-4.7c-23.3-5.4-44.3,15.2-68.1,19.8c-9.3,1.9-19.4,0.8-28.4-2.7c-53.3,91-117.1,249.7-66.1,292.8
				c65.3,55.2,269.9-96.4,321.2-157.5c42.8-50.9,44.3-122.5,8.6-175C450.08,4.59,434.88,7.69,421.68,13.89z"/>
			<path d="M89.18,435.09c-0.8-0.8-1.9-1.6-3.1-2.3l57.9-68.1c-8.2-2.7-15.6-6.6-21.8-12.1c-6.6-5.4-11.7-12.1-15.2-19.4l-57.9,68.8
				c-0.8-0.8-1.6-1.9-2.7-2.7c-12.1-10.1-29.6-8.6-39.7,3.5s-8.6,29.6,3.5,39.7c11.3,9.3,27.6,8.6,37.7-1.2
				c-8.2,11.7-5.8,28,5.1,37.3c12.1,10.1,29.6,8.6,39.7-3.5C102.78,463.09,101.18,445.19,89.18,435.09z"/>
		</g>
	</g>
</g>
<g>
</g>
<g>
</g>
<g>
</g>
<g>
</g>
<g>
</g>
<g>
</g>
<g>
</g>
<g>
</g>
<g>
</g>
<g>
</g>
<g>
</g>
<g>
</g>
<g>
</g>
<g>
</g>
<g>
</g>
</svg>
