<?xml version="1.0" encoding="iso-8859-1"?>
<!-- Generator: Adobe Illustrator 19.0.0, SVG Export Plug-In . SVG Version: 6.00 Build 0)  -->
<svg version="1.1" id="Layer_1" xmlns="http://www.w3.org/2000/svg" xmlns:xlink="http://www.w3.org/1999/xlink" x="0px" y="0px"
	 viewBox="0 0 496 496" style="enable-background:new 0 0 496 496;" xml:space="preserve">
<g>
	<g>
		<g>
			<path d="M160,312c-13.232,0-24,10.768-24,24s10.768,24,24,24s24-10.768,24-24S173.232,312,160,312z M160,344
				c-4.416,0-8-3.584-8-8c0-4.416,3.584-8,8-8s8,3.584,8,8C168,340.416,164.416,344,160,344z"/>
			<path d="M142.8,281.432C144.2,289.864,151.44,296,160,296s15.8-6.136,17.2-14.568l5.376-32.224
				C183.52,243.544,184,237.76,184,232c0-13.232-10.768-24-24-24s-24,10.768-24,24c0,5.76,0.48,11.544,1.424,17.208L142.8,281.432z
				 M160,224c4.416,0,8,3.584,8,8c0,4.88-0.408,9.784-1.2,14.568l-5.376,32.224c-0.232,1.392-2.608,1.392-2.84,0l-5.376-32.216
				C152.408,241.784,152,236.88,152,232C152,227.584,155.584,224,160,224z"/>
			<path d="M82.664,290.584l26.568,18.984c3.072,2.192,6.616,3.264,10.152,3.264c4.496,0,8.944-1.736,12.344-5.128
				c6.048-6.064,6.824-15.52,1.84-22.472l-18.984-26.576c-3.344-4.688-7.104-9.12-11.152-13.168c-9.36-9.36-24.576-9.36-33.936,0
				c-9.36,9.36-9.36,24.576,0,33.936C73.544,283.488,77.976,287.24,82.664,290.584z M80.808,256.808
				c1.56-1.56,3.608-2.336,5.656-2.336c2.048,0,4.096,0.776,5.656,2.336c3.44,3.44,6.616,7.184,9.456,11.152l18.984,26.584
				c0.416,0.576,0.352,1.36-0.136,1.848c-0.496,0.504-1.288,0.568-1.864,0.16l-26.584-18.984c-3.968-2.832-7.72-6.016-11.152-9.456
				C77.688,265,77.688,259.92,80.808,256.808z"/>
			<path d="M105.432,353.2C113.864,351.8,120,344.56,120,336s-6.136-15.8-14.568-17.2l-32.224-5.376C67.544,312.48,61.76,312,56,312
				c-13.232,0-24,10.768-24,24s10.768,24,24,24c5.76,0,11.544-0.48,17.208-1.424L105.432,353.2z M56,344c-4.416,0-8-3.584-8-8
				c0-4.416,3.584-8,8-8c4.88,0,9.784,0.408,14.568,1.2l32.224,5.376c0.696,0.12,1.208,0.712,1.208,1.424
				c0,0.712-0.512,1.304-1.2,1.424L70.576,342.8C65.784,343.592,60.88,344,56,344z"/>
			<path d="M131.712,364.272c-6.064-6.048-15.52-6.832-22.472-1.84l-26.576,18.984c-4.688,3.344-9.12,7.104-13.176,11.16
				c-9.36,9.36-9.36,24.576,0,33.936c4.68,4.68,10.824,7.016,16.968,7.016c6.152,0,12.288-2.336,16.968-7.016
				c4.056-4.056,7.816-8.488,11.152-13.168l18.984-26.568C138.544,379.808,137.776,370.352,131.712,364.272z M120.552,377.456
				l-18.984,26.584c-2.84,3.968-6.016,7.72-9.456,11.152c-3.128,3.128-8.184,3.128-11.312,0c-3.12-3.12-3.12-8.192,0-11.312
				c3.44-3.44,7.184-6.616,11.152-9.456l26.584-18.984c0.248-0.176,0.544-0.272,0.84-0.272c0.368,0,0.736,0.144,1.008,0.416
				C120.904,376.096,120.968,376.872,120.552,377.456z"/>
			<path d="M177.2,390.568C175.8,382.136,168.56,376,160,376s-15.8,6.136-17.2,14.568l-5.376,32.224
				C136.48,428.456,136,434.24,136,440c0,13.232,10.768,24,24,24s24-10.768,24-24c0-5.76-0.48-11.544-1.424-17.208L177.2,390.568z
				 M160,448c-4.416,0-8-3.584-8-8c0-4.88,0.408-9.784,1.2-14.568l5.376-32.224c0.12-0.704,0.712-1.208,1.424-1.208
				c0.712,0,1.304,0.504,1.424,1.2l5.376,32.216c0.792,4.8,1.2,9.704,1.2,14.584C168,444.416,164.416,448,160,448z"/>
			<path d="M237.336,381.416l-26.568-18.984c-6.984-4.992-16.432-4.2-22.496,1.856c-6.048,6.064-6.824,15.52-1.84,22.472
				l18.984,26.576c3.344,4.688,7.104,9.12,11.152,13.168c4.68,4.68,10.824,7.016,16.968,7.016c6.152,0,12.288-2.336,16.968-7.016
				c9.36-9.36,9.36-24.576,0-33.936C246.456,388.512,242.024,384.76,237.336,381.416z M239.192,415.192
				c-3.128,3.128-8.184,3.128-11.312,0c-3.44-3.44-6.616-7.184-9.456-11.152l-18.984-26.584c-0.416-0.576-0.352-1.36,0.136-1.848
				c0.28-0.28,0.656-0.432,1.032-0.432c0.288,0,0.584,0.096,0.832,0.272l26.584,18.984c3.968,2.832,7.72,6.016,11.16,9.456
				C242.312,407,242.312,412.08,239.192,415.192z"/>
			<path d="M214.576,318.8C206.136,320.2,200,327.44,200,336s6.136,15.8,14.568,17.2l32.224,5.376
				C252.456,359.52,258.24,360,264,360c13.232,0,24-10.768,24-24s-10.768-24-24-24c-5.76,0-11.544,0.48-17.208,1.424L214.576,318.8z
				 M264,328c4.416,0,8,3.584,8,8c0,4.416-3.584,8-8,8c-4.88,0-9.784-0.408-14.568-1.2l-32.224-5.376
				c-0.704-0.12-1.208-0.712-1.208-1.424c0-0.712,0.504-1.304,1.2-1.424l32.216-5.376C254.216,328.408,259.12,328,264,328z"/>
			<path d="M188.288,307.728c3.392,3.384,7.832,5.12,12.32,5.12c3.528,0,7.088-1.08,10.144-3.272l26.576-18.984
				c4.688-3.344,9.12-7.104,13.168-11.16c9.36-9.36,9.36-24.576,0-33.936c-9.36-9.36-24.576-9.36-33.936,0
				c-4.056,4.056-7.816,8.488-11.152,13.168l-18.984,26.568C181.456,292.192,182.224,301.648,188.288,307.728z M199.448,294.544
				l18.984-26.584c2.832-3.968,6.016-7.72,9.456-11.152c1.56-1.56,3.608-2.336,5.656-2.336c2.048,0,4.096,0.776,5.656,2.336
				c3.12,3.12,3.12,8.192,0,11.312c-3.44,3.44-7.184,6.616-11.16,9.456l-26.584,18.984c-0.552,0.408-1.352,0.36-1.848-0.144
				C199.096,295.904,199.032,295.128,199.448,294.544z"/>
			<path d="M296,0C188.64,0,101.984,82.72,96.4,189.256C39.744,213.912,0,270.376,0,336c0,88.224,71.776,160,160,160
				c65.624,0,122.088-39.744,146.744-96.4C413.28,394.016,496,307.36,496,200C496,89.72,406.28,0,296,0z M160,480
				c-79.4,0-144-64.6-144-144s64.6-144,144-144s144,64.6,144,144S239.4,480,160,480z M248.208,84.632
				c-1.04-1.144-2.024-2.328-3.128-3.424c-6.816-6.824-15.216-11.096-24.024-12.944c10.92-6.28,22.608-11.28,34.92-14.704
				C250.952,61.144,248,70.232,248,80C248,81.552,248.136,83.088,248.208,84.632z M233.776,92.52
				c6.808,6.816,12.248,14.736,16.16,23.528l30.312,68.192l-68.192-30.312c-8.8-3.904-16.712-9.344-23.528-16.152
				c-11.2-11.2-12.256-28.664-3.352-41.152c2.36-2.536,4.808-5,7.344-7.368c5.56-4,12.072-6.088,18.632-6.088
				C219.344,83.168,227.536,86.288,233.776,92.52z M335.992,53.52c12.488,3.416,24.328,8.328,35.32,14.632
				c-8.944,1.8-17.48,6.128-24.4,13.048c-1.096,1.096-2.088,2.28-3.128,3.424C343.864,83.088,344,81.552,344,80
				C344,70.216,341.04,61.112,335.992,53.52z M342.072,116.048c3.904-8.8,9.344-16.712,16.16-23.528
				c6.24-6.232,14.432-9.352,22.624-9.352c7.736,0,15.424,2.88,21.52,8.44c0.688,0.672,1.36,1.352,2.032,2.032
				c11.44,12.544,11.2,32.008-0.928,44.136c-6.816,6.808-14.736,12.248-23.528,16.152L311.76,184.24L342.072,116.048z
				 M343.792,315.368c1.04,1.144,2.024,2.328,3.128,3.424c6.832,6.84,15.256,11.112,24.08,12.952
				c-10.904,6.272-22.6,11.296-34.976,14.712C341.096,338.808,344,329.704,344,320C344,318.448,343.864,316.912,343.792,315.368z
				 M358.232,307.48c-6.808-6.824-12.248-14.736-16.16-23.528L311.76,215.76l68.192,30.312c8.8,3.904,16.712,9.344,23.528,16.16
				c11.224,11.224,12.256,28.744,3.28,41.24c-2.36,2.528-4.824,4.976-7.36,7.344C386.904,319.736,369.44,318.68,358.232,307.48z
				 M411.368,247.784c1.544,0.08,3.08,0.216,4.632,0.216c9.768,0,18.856-2.952,26.448-7.984
				c-3.432,12.32-8.432,24.008-14.712,34.928c-1.848-8.808-6.112-17.208-12.944-24.032
				C413.696,249.816,412.512,248.824,411.368,247.784z M416,232c-9.632,0-19.08-1.752-28.056-5.208L318.288,200l69.656-26.792
				C396.92,169.752,406.368,168,416,168c17.648,0,32,14.352,32,32S433.648,232,416,232z M416,152c-1.552,0-3.088,0.136-4.632,0.208
				c1.144-1.04,2.328-2.024,3.424-3.128c6.92-6.92,11.248-15.456,13.048-24.408c6.312,11,11.224,22.848,14.64,35.328
				C434.88,154.952,425.784,152,416,152z M322.792,108.056L296,177.712l-26.792-69.656C265.752,99.08,264,89.632,264,80
				c0-17.648,14.352-32,32-32s32,14.352,32,32C328,89.632,326.248,99.08,322.792,108.056z M282.064,213.936l-5.096,13.256
				c-2.624-2.816-5.336-5.528-8.152-8.152L282.064,213.936z M254.68,207.32C228.136,187.728,195.448,176,160,176
				c-1.816,0-3.584,0.216-5.392,0.272C160.336,171.056,167.856,168,176,168c9.632,0,19.08,1.752,28.064,5.208L273.712,200
				L254.68,207.32z M180.624,152.216c-1.536-0.08-3.072-0.216-4.624-0.216c-9.704,0-18.808,2.896-26.456,7.984
				c3.408-12.376,8.432-24.072,14.704-34.976c1.84,8.824,6.112,17.24,12.952,24.08C178.296,150.184,179.48,151.176,180.624,152.216z
				 M288.68,241.312l7.32-19.024l26.792,69.648C326.248,300.92,328,310.368,328,320c0,8.144-3.056,15.664-8.272,21.392
				c0.056-1.808,0.272-3.576,0.272-5.392C320,300.552,308.272,267.864,288.68,241.312z M312.896,383.136
				c1.688-5.456,3.024-11.048,4.12-16.736c35.832-4.52,68.136-20.408,93.272-43.928c1.52-1.192,3.104-2.28,4.504-3.68
				c1.368-1.368,2.432-2.92,3.6-4.408C446.648,284.16,464,243.752,464,200c0-1.656-0.088-3.288-0.248-4.904
				c-1.272-43.792-19.264-83.44-47.96-112.672c-0.368-0.392-0.616-0.84-1-1.224c-0.384-0.384-0.832-0.64-1.224-1
				c-29.232-28.688-68.872-46.68-112.664-47.952C299.288,32.08,297.656,32,296,32c-43.752,0-84.152,17.344-114.384,45.6
				c-1.488,1.168-3.04,2.232-4.416,3.608c-1.4,1.4-2.488,2.984-3.672,4.504c-23.52,25.136-39.416,57.44-43.928,93.272
				c-5.68,1.096-11.28,2.44-16.736,4.128C121.336,88.488,199.592,16,296,16c101.464,0,184,82.536,184,184
				C480,296.408,407.512,374.664,312.896,383.136z"/>
		</g>
	</g>
</g>
<g>
</g>
<g>
</g>
<g>
</g>
<g>
</g>
<g>
</g>
<g>
</g>
<g>
</g>
<g>
</g>
<g>
</g>
<g>
</g>
<g>
</g>
<g>
</g>
<g>
</g>
<g>
</g>
<g>
</g>
</svg>
