<?xml version="1.0" encoding="iso-8859-1"?>
<!-- Generator: Adobe Illustrator 17.1.0, SVG Export Plug-In . SVG Version: 6.00 Build 0)  -->
<!DOCTYPE svg PUBLIC "-//W3C//DTD SVG 1.1//EN" "http://www.w3.org/Graphics/SVG/1.1/DTD/svg11.dtd">
<svg version="1.1" id="Capa_1" xmlns="http://www.w3.org/2000/svg" xmlns:xlink="http://www.w3.org/1999/xlink" x="0px" y="0px"
	 viewBox="0 0 194.026 194.026" style="enable-background:new 0 0 194.026 194.026;" xml:space="preserve">
<path d="M121.546,120.436c8.384,35.558-8.839,62.936-44.947,71.449c-6.025,1.421-11.96,2.142-17.637,2.142
	c-27.74,0-47.603-16.762-54.493-45.988c-9.103-38.609,5.888-89.52,38.855-97.292c2.836-0.669,5.778-1.008,8.745-1.008
	c14.561,0,30.074,8.11,43.684,22.838C108.133,85.975,117.534,103.418,121.546,120.436z M165.116,0.674
	C163.211,0.227,161.237,0,159.249,0c-20.209,0-39.169,22.938-44.198,44.361c-3.516,14.974,0.644,25.049,4.751,30.864
	c5.264,7.452,13.647,12.706,24.245,15.194c3.791,0.89,7.536,1.342,11.13,1.342c0.002,0,0.002,0,0.004,0
	c18.021,0,30.899-10.82,35.329-29.685C196.332,37.273,186.71,5.744,165.116,0.674z"/>
<g>
</g>
<g>
</g>
<g>
</g>
<g>
</g>
<g>
</g>
<g>
</g>
<g>
</g>
<g>
</g>
<g>
</g>
<g>
</g>
<g>
</g>
<g>
</g>
<g>
</g>
<g>
</g>
<g>
</g>
</svg>
