<?xml version="1.0" encoding="iso-8859-1"?>
<!-- Generator: Adobe Illustrator 18.1.1, SVG Export Plug-In . SVG Version: 6.00 Build 0)  -->
<svg version="1.1" id="Capa_1" xmlns="http://www.w3.org/2000/svg" xmlns:xlink="http://www.w3.org/1999/xlink" x="0px" y="0px"
	 viewBox="0 0 36.763 36.763" style="enable-background:new 0 0 36.763 36.763;" xml:space="preserve">
<g>
	<g id="b53_cheese">
		<path d="M20.302,2.067L0,20.413l36.393-9.826C36.393,10.587,34.559,3.969,20.302,2.067z M16.821,11.239
			c-0.848,0-1.536-0.684-1.536-1.535c0-0.849,0.688-1.535,1.536-1.535c0.848,0,1.536,0.687,1.536,1.535
			C18.357,10.555,17.669,11.239,16.821,11.239z M22.216,9.244c-0.767,0-1.388-0.621-1.388-1.387s0.621-1.389,1.388-1.389
			s1.388,0.624,1.388,1.389S22.982,9.244,22.216,9.244z M31.265,11.243c-0.934,0-1.692-0.756-1.692-1.694
			c0-0.936,0.759-1.694,1.692-1.694c0.935,0,1.695,0.758,1.695,1.694C32.96,10.486,32.199,11.243,31.265,11.243z"/>
		<path d="M36.644,12.196L0,21.092v13.605h19.227c0.67-2.16,2.661-3.74,5.043-3.74c2.381,0,4.372,1.58,5.042,3.74h7.451
			L36.644,12.196z M10.603,29.035c-0.58,0-1.05-0.468-1.05-1.049c0-0.579,0.47-1.05,1.05-1.05c0.579,0,1.05,0.471,1.05,1.05
			C11.652,28.567,11.182,29.035,10.603,29.035z M12.102,24.834c-0.799,0-1.447-0.647-1.447-1.448c0-0.797,0.648-1.449,1.447-1.449
			c0.802,0,1.449,0.652,1.449,1.449C13.551,24.186,12.903,24.834,12.102,24.834z M18.967,29.035c-1.161,0-2.101-0.94-2.101-2.099
			c0-1.16,0.939-2.103,2.101-2.103c1.158,0,2.101,0.942,2.101,2.103C21.067,28.094,20.125,29.035,18.967,29.035z M28.832,21.936
			c-1.174,0-2.124-0.946-2.124-2.121c0-1.172,0.95-2.124,2.124-2.124c1.173,0,2.123,0.951,2.123,2.124
			C30.955,20.99,30.005,21.936,28.832,21.936z"/>
	</g>
	<g id="Capa_1_34_">
	</g>
</g>
<g>
</g>
<g>
</g>
<g>
</g>
<g>
</g>
<g>
</g>
<g>
</g>
<g>
</g>
<g>
</g>
<g>
</g>
<g>
</g>
<g>
</g>
<g>
</g>
<g>
</g>
<g>
</g>
<g>
</g>
</svg>
